<?xml version="1.0" encoding="utf-8" ?><svg xmlns="http://www.w3.org/2000/svg" xmlns:xlink="http://www.w3.org/1999/xlink" width="200" height="200" viewBox="0 0 200 200"><path fill="white" d="M0 0L200 0L200 200L0 200L0 0Z"/><path d="M117.857 49.6098C130.018 49.7096 140.483 57.0075 144.489 68.4876C144.861 69.5554 145.219 70.62 145.566 71.6965C140.646 71.4249 132.711 71.6968 127.628 71.6925C125.002 66.974 118.821 65.2475 113.881 66.9495C111.191 67.8767 108.99 69.8519 107.778 72.4262C106.393 75.298 106.213 78.604 107.277 81.6092C110.479 90.5884 123.954 91.1947 127.53 83.5045L145.623 83.5234C143.257 91.0724 139.699 97.1354 132.77 101.43C126.437 105.342 118.815 106.592 111.565 104.909C103.94 103.082 97.8441 98.6966 93.7486 91.9954L85.9191 92.0045C81.0519 100.755 69.2539 95.1016 72.3963 86.4066C73.0481 84.5954 74.41 83.1282 76.1676 82.3436C80.5573 80.3557 84.2893 82.6725 86.1146 86.7057C89.7663 86.7253 93.418 86.724 97.0697 86.7019C98.4991 90.3763 100.678 92.5781 103.435 95.2457C103.801 95.549 104.181 95.8357 104.573 96.1049C116.383 104.156 130.03 100.492 137.781 88.9049C135.277 88.9425 132.67 88.8897 130.157 88.8707C129.864 89.216 129.557 89.5493 129.237 89.8698C120.799 98.2597 104.686 94.0036 101.821 82.3139C100.337 76.2599 101.755 69.9505 106.3 65.5453C109.509 62.4868 113.804 60.8321 118.236 60.9469C123.297 61.0443 126.737 62.7989 130.154 66.3267C132.556 66.2504 135.256 66.3151 137.682 66.3246C135.693 63.138 133.076 60.2378 129.852 58.2652C124.675 55.0952 118.446 54.1254 112.55 55.5718C106.574 57.0442 101.669 60.5122 98.4846 65.8032C94.3788 65.7563 90.1535 65.8103 86.0384 65.8151C82.2873 71.2008 77.3591 71.1604 72.8237 66.7627C68.4741 55.1465 82.6912 51.2606 86.1608 60.499C89.365 60.4848 92.5693 60.4918 95.7734 60.52C100.352 53.3478 109.688 49.935 117.857 49.6098Z"/><path fill="white" d="M78.3878 59.7091C80.0023 59.2535 81.6836 60.1785 82.1631 61.7861C82.6427 63.3937 81.7429 65.0885 80.1426 65.5919C79.086 65.9244 77.9323 65.6618 77.1236 64.9049C76.3149 64.148 75.9767 63.0141 76.2385 61.9379C76.5004 60.8616 77.3217 60.0099 78.3878 59.7091Z"/><path fill="white" d="M78.7805 86.1153C80.439 85.8674 81.9878 87.0013 82.2524 88.6572C82.5171 90.313 81.399 91.8732 79.7459 92.1547C78.6615 92.3393 77.5615 91.9274 76.8651 91.0759C76.1688 90.2243 75.9834 89.0645 76.3796 88.0383C76.7758 87.0122 77.6926 86.2778 78.7805 86.1153Z"/><path d="M60.6587 68.5302C64.8814 68.3378 66.6967 69.5565 68.6766 73.2821C75.6493 73.1225 83.2249 73.2771 90.2464 73.2808L91.1454 69.2454L96.649 69.2355C95.0984 74.0435 94.9049 77.9912 95.743 82.9295C94.2034 82.7673 92.1415 82.865 90.5546 82.8958C90.1518 82.3167 90.0019 79.3782 89.9378 78.5639L68.6147 78.5439C68.5458 78.7365 68.4715 78.9271 68.3918 79.1154C64.6464 87.9705 51.0948 81.3627 55.2277 72.7464C56.2632 70.5875 58.4709 69.2523 60.6587 68.5302Z"/><path fill="white" d="M61.1016 72.8835C62.738 72.4752 64.3972 73.4636 64.8174 75.0969C65.2376 76.7302 64.2613 78.3966 62.6311 78.8287C60.984 79.2653 59.2965 78.2767 58.872 76.6265C58.4474 74.9762 59.4483 73.296 61.1016 72.8835Z"/><path d="M90.2192 113.306C98.6007 112.46 98.7171 116.472 98.544 123.555C98.4243 128.457 99.8735 133.978 94.6779 136.102C84.4896 137.76 86.9984 129.006 86.6892 122.214C86.5143 118.373 86.2645 115.138 90.2192 113.306Z"/><path fill="white" d="M91.8202 116.923C93.7197 117.101 94.3242 117.11 94.3232 119.199C94.3212 123.298 94.5537 127.488 94.1603 131.564C94.1028 132.16 93.6376 132.313 93.1902 132.602C92.3637 132.538 92.0115 132.559 91.2989 132.15C90.3575 130.911 90.7082 119.655 91.1754 117.625C91.1755 117.625 91.7397 117.01 91.8202 116.923Z"/><path fill="#C58C4F" d="M116.568 69.385C121.056 68.6542 125.293 71.6774 126.063 76.1585C126.833 80.6397 123.847 84.9037 119.373 85.7125C114.843 86.5312 110.514 83.5 109.735 78.9633C108.956 74.4267 112.025 70.1248 116.568 69.385Z"/><path d="M105.608 113.274C107.898 113.082 111.018 112.936 112.286 115.193C114.019 118.279 114.303 122.555 109.416 121.181C108.983 120.496 109.124 118.828 108.792 117.615C108.305 117.198 108.128 117.009 107.385 117.016C106.933 117.021 106.5 117.203 106.18 117.522C105.512 118.203 105.76 120.72 105.785 121.798C109.757 123.343 113.793 123.785 113.502 129.26C113.312 132.831 112.809 135.168 109.069 136.231C102.517 136.544 101.275 134.142 101.766 128.012L105.649 128.016C105.653 129.744 105.386 132.175 107.53 132.675C109.474 132.003 109.064 129.097 109.01 127.491C105.156 125.987 101.167 125.261 101.497 120.164C101.707 116.906 102.066 114.329 105.608 113.274Z"/><path d="M75.5413 113.283C83.1029 112.843 83.6311 115.131 83.4887 121.984L79.5057 122.024C79.49 120.431 79.809 118.24 78.5484 117.186C77.8124 116.894 77.7142 116.897 76.9326 117.038C75.4535 118.477 75.5797 129.838 76.1609 131.81C76.9751 132.744 78.1897 132.702 79.0704 131.901C79.5563 130.845 79.4668 129.178 79.4852 127.958C79.5087 127.844 79.6859 127.534 79.7503 127.411C80.6803 127.14 82.44 127.265 83.4899 127.294C83.5592 129.545 83.7951 132.071 82.5228 134.035C80.1853 137.643 76.0034 136.624 72.9741 134.798C71.2885 131.527 71.7197 127.23 71.6821 123.582C71.6426 119.742 71.178 114.777 75.5413 113.283Z"/><path d="M120.251 113.289C127.641 112.609 128.376 115.493 128.22 121.961C126.952 122.011 125.516 121.987 124.234 121.994C124.175 120.701 124.197 118.674 123.709 117.551C123.197 117.049 123.072 117.047 122.377 116.936C121.814 117.114 121.387 117.224 121.066 117.813C120.003 119.767 120.414 130.045 120.813 131.827C121.742 132.728 122.819 132.751 123.761 131.884C124.25 130.827 124.162 129.385 124.187 128.187C124.224 127.727 124.223 127.857 124.521 127.425C125.575 127.096 127.101 127.279 128.243 127.339C128.276 129.231 128.432 131.307 127.82 133.123C127.44 134.248 126.732 135.162 125.646 135.677C124.037 136.439 121.35 136.576 119.689 135.964C118.479 135.518 117.589 134.598 117.079 133.424C116.084 131.136 116.067 118.422 117.01 116.161C117.71 114.482 118.658 113.928 120.251 113.289Z"/><path d="M92.4595 144.678C96.5084 144.727 97.0193 148.253 93.6642 150.753C90.0258 150.623 89.1641 146.907 92.4595 144.678Z"/><path fill="white" d="M92.2606 145.712C95.4983 145.612 95.5474 147.862 93.5834 149.869C91.1631 150.062 90.7613 147.573 92.2606 145.712Z"/><path d="M83.3445 153.998C87.9017 153.771 88.7002 157.816 85.5433 159.832C81.9158 160.386 81.0839 156.519 83.3445 153.998Z"/><path fill="white" d="M83.3572 155.004C86.7591 154.605 86.9445 156.289 85.6965 158.986C82.912 159.212 82.3276 157.28 83.3572 155.004Z"/><path d="M120.99 144.692C124.902 144.682 125.786 148.407 122.38 150.81C120.413 150.706 119.683 149.428 118.729 147.922C119.377 146.349 119.665 145.723 120.99 144.692Z"/><path fill="white" d="M121.026 145.654C124.229 145.62 123.911 148.046 122.347 150.02C119.857 149.722 119.587 147.518 121.026 145.654Z"/><path fill="white" d="M60.2802 149.032C59.9785 149.643 59.5501 150.257 58.9082 150.544C58.41 150.769 57.8402 150.775 57.3378 150.559C54.0803 149.193 55.2195 143.842 59.0816 144.915C59.7591 145.103 60.1031 146.004 60.3075 146.637C60.7796 147.604 60.6098 147.945 60.2802 149.032Z"/><path d="M60.2802 149.032C59.9785 149.643 59.5501 150.257 58.9082 150.544C58.41 150.769 57.8402 150.775 57.3378 150.559C54.0803 149.193 55.2195 143.842 59.0816 144.915C59.7591 145.103 60.1031 146.004 60.3075 146.637C59.6641 146.533 59.3648 146.33 58.8304 145.983C57.8277 145.918 57.6361 145.914 56.6722 146.169C55.5097 147.297 56.8581 149.647 57.9148 149.92C59.525 149.492 59.0052 148.426 60.2802 149.032Z"/><path d="M122.622 157.013C123.277 155.914 123.8 154.935 124.811 154.11L124.973 154.251C124.758 155.048 124.407 156.131 123.962 156.809C123.172 158.011 123.285 158.835 122.88 160.137C121.117 157.348 123.422 154.166 118.041 155.013C118.176 156.037 118.354 158.724 118.052 159.634L117.639 159.712C117.041 159.087 117.375 156.68 117.225 155.742C117.12 155.088 116.018 154.465 115.438 154.033C117.564 153.879 119.7 153.976 121.803 154.32L122.622 157.013Z"/><path d="M96.8237 144.752C98.7448 144.693 99.9713 144.524 100.982 146.449C100.925 148.241 99.7223 148.477 98.126 148.659C97.8061 148.984 97.6456 149.961 97.4549 150.542L97.1299 150.601C96.7777 149.653 96.8502 145.955 96.8237 144.752Z"/><path d="M110.537 144.615C110.741 144.691 111.276 144.84 111.295 145.098C111.393 146.417 112.166 149.558 110.851 150.28C110.045 150.022 107.875 147.373 107.13 146.575C107.428 148.295 107.552 148.917 107.443 150.644C105.835 150.237 106.496 145.642 106.561 144.177C108.1 145.934 108.658 147.062 110.454 148.74C110.363 147.053 110.37 146.294 110.537 144.615Z"/><path d="M70.7568 144.624C71.0596 144.738 71.2096 144.933 71.44 145.163C71.8774 147.413 71.4234 149.153 71.0343 151.374C69.7823 149.4 68.6436 148.106 67.1066 146.383C67.4222 147.925 67.5452 148.947 67.692 150.518L67.1196 150.312C66.2412 148.841 66.5022 145.761 66.529 143.969C67.95 145.9 68.9387 147.141 70.54 148.925C70.522 147.552 70.4233 145.927 70.7568 144.624Z"/><path d="M77.8649 144.766C81.3307 144.689 82.8477 144.711 81.5323 148.525C81.5005 148.618 82.1203 150.1 82.2088 150.306L82.0206 150.51L81.2206 150.31C80.8456 149.81 80.1068 148.613 80.0834 147.991L81.0922 147.183C81.398 146.498 81.3835 146.784 81.1822 146.108C80.3878 145.451 79.8913 145.475 78.9867 145.895C78.5128 147.162 79.3423 147.275 79.1956 148.581C79.0756 149.649 78.6825 151.088 78.4164 152.141C77.8462 149.571 77.724 147.384 77.8649 144.766Z"/><path d="M131.259 144.774C132.071 144.776 134 144.721 134.652 145.097C136.17 145.973 134.415 147.706 134.984 148.831C135.097 149.054 135.346 150.117 135.421 150.402L135.219 150.654C134.291 150.108 133.58 149.259 133.206 148.249L133.462 147.818C134.332 147.065 134.733 146.954 134.24 145.883C133.369 145.559 133.723 145.596 132.798 145.752C132.047 146.482 132.249 148.319 132.18 149.661L131.71 149.942L132.142 149.918L131.825 150.316L132.064 150.251L131.899 150.441C130.995 149.179 131.227 146.37 131.259 144.774Z"/><path d="M108.066 153.811C109.549 154.498 111.089 157.318 111.949 158.776C111.952 157.342 111.857 155.895 112.356 154.556L112.621 154.47C113.119 156.016 112.88 157.665 112.695 159.258L112.659 159.555L112.316 159.651C111.02 158.81 109.893 156.937 109.101 155.649C109.014 156.712 109.004 158.55 108.33 159.294C107.729 158.22 108.001 155.161 108.066 153.811Z"/><path d="M85.1761 144.592L85.6548 144.847C86.3946 146.027 87.8762 149.109 87.7233 150.503C87.1906 150.628 86.8394 149.496 86.492 149.093C86.0447 148.948 85.6768 148.829 85.3883 148.736L84.5336 148.856C83.9317 149.655 83.7853 149.791 82.9798 150.392L82.6844 150.329C83.5408 147.658 83.7887 147.09 85.1761 144.592Z"/><path d="M74.2634 144.55C75.4378 145.074 77.5856 149.401 76.8614 150.558L76.505 150.462L75.7759 148.977L75.1996 148.792C72.8519 149.136 73.3262 150.109 72.1137 150.345C72.0855 149.565 73.8529 145.81 74.2634 144.55Z"/><path d="M63.0441 144.625C64.2379 145.148 66.0275 150.611 66.395 152.034C65.4734 151.014 64.7094 149.767 63.8056 148.641C61.8563 148.657 62.2002 150.205 60.8505 150.435C61.1381 149.199 62.4294 145.718 63.0441 144.625Z"/><path d="M142.022 144.757C143.28 144.769 144.405 144.843 145.658 144.932L145.822 145.144C144.953 145.461 143.423 145.917 142.791 146.501C143.094 146.983 144.68 147.294 145.459 147.554C144.639 148.013 143.82 147.662 142.666 148.046C143.162 151.086 144.288 149.036 145.917 149.838L146.034 150.26C145.223 150.968 143.282 150.663 142.065 150.621C141.953 148.697 142.2 146.766 142.022 144.757Z"/><path d="M125.531 144.608C127.135 145.14 125.465 148.802 127.587 149.897C130.476 149.295 128.462 145.966 129.524 144.801L129.972 144.896L130.107 145.37C130.126 145.944 130.214 148.237 130.031 148.59C127.555 153.372 124.24 148.842 125.531 144.608Z"/><path d="M101.917 144.773C103.408 144.746 104.214 144.594 105.538 145.282C104.759 146.006 103.358 144.906 102.627 146.487L102.963 147.042C103.679 147.095 104.145 147.142 104.849 147.274L104.951 147.618C103.984 148.069 103.564 147.396 102.297 148.327L102.337 148.483C102.777 150.144 103.675 149.232 105.539 150.307C104.83 150.802 102.879 150.676 101.951 150.656C101.701 148.901 102.029 146.78 101.917 144.773Z"/><path d="M115.67 144.711C116.56 144.738 117.567 144.628 117.969 145.507C117.407 146.249 116.475 145.168 115.298 146.122C115.86 147.567 118.581 147.269 118.442 149.43C117.964 150.256 117.565 150.374 116.69 150.802C115.744 150.57 114.709 150.348 114.149 149.473C114.525 149.266 116.279 149.745 117.401 149.436L117.483 148.917C116.632 147.534 114.32 148.026 114.235 146.18C114.731 145.363 114.877 145.262 115.67 144.711Z"/><path d="M102.161 153.823C103.552 154.636 102.167 157.33 103.604 158.832C104.224 159.091 104.303 159.112 104.963 158.934C106.102 157.873 105.922 155.616 106.296 154.129L106.728 154.027L107.035 154.487C107.049 154.919 107.057 155.352 107.059 155.784C107.067 160.95 101.329 162.145 102.161 153.823Z"/><path d="M138.17 144.699C139.413 144.756 140.047 144.75 140.904 145.616L140.883 146.269C140.032 146.686 139.635 145.621 138.066 145.738C136.247 146.91 137.339 149.467 139.004 149.993L139.372 149.668C139.882 149.172 140.131 148.859 140.808 148.99L140.834 149.505C138.586 153.187 133.646 147.918 138.17 144.699Z"/><path d="M78.0737 153.997C79.6127 153.922 80.4434 153.727 81.149 155.16L80.9643 155.515C79.5724 155.272 78.1962 154.798 77.25 155.977C77.0379 157.262 77.8856 159.201 79.5713 158.894C80.3946 158.37 80.3269 158.21 81.0887 158.302L81.0975 158.782C78.9766 161.447 77.1907 159.018 76.3508 156.851C76.9104 155.512 77.0733 155.046 78.0737 153.997Z"/><path d="M88.1545 153.821C89.8127 154.413 91.1693 156.669 91.4876 158.359L91.251 158.579C90.5205 158.229 90.2156 157.354 89.8459 156.606C89.7453 156.465 89.6904 156.492 89.4671 156.407C88.8805 157.47 89.3496 158.478 88.9311 159.593L88.5265 159.723L88.1904 159.387C87.8815 157.83 88.0813 155.468 88.1545 153.821Z"/><path d="M100.112 153.82C100.422 153.911 100.563 154.074 100.806 154.286C100.969 155.755 101.222 158.822 100.639 160.111C99.8244 159.466 99.7332 157.556 99.5056 156.547C99.2333 155.34 99.471 154.866 100.112 153.82Z"/><path d="M93.0571 153.778C93.4802 153.915 93.4879 153.934 93.789 154.276C94.018 156.063 94.057 158.157 93.8328 159.946L93.1645 159.514C92.4173 157.261 92.1758 155.927 93.0571 153.778Z"/><path d="M95.1885 153.8C97.891 154.649 96.2827 156.701 96.0855 158.938C96.0664 159.227 95.9637 159.473 95.8751 159.754L95.6465 159.754C95.0481 159.023 95.193 154.973 95.1885 153.8Z"/><path d="M114.18 153.808L114.797 153.971C115.42 154.725 114.953 158.471 114.851 159.688L114.319 159.638C113.713 158.704 114.087 155.094 114.18 153.808Z"/></svg>